<svg width="74" height="24" xmlns="http://www.w3.org/2000/svg">
  <g fill="none" fill-rule="evenodd">
    <path fill="#FF5722" d="M0 0h30v24H0z"/>
    <path d="M44 4v16a4 4 0 0 1-4 4H34a4 4 0 0 1-4-4V4a4 4 0 0 1 4-4h6a4 4 0 0 1 4 4zm-2 0a2 2 0 0 0-2-2h-6a2 2 0 0 0-2 2v16a2 2 0 0 0 2 2h6a2 2 0 0 0 2-2V4zm5 6v10a4 4 0 0 1-4 4h-2a4 4 0 0 1-4-4V10a4 4 0 0 1 4-4h2a4 4 0 0 1 4 4zm-2 0a2 2 0 0 0-2-2h-2a2 2 0 0 0-2 2v10a2 2 0 0 0 2 2h2a2 2 0 0 0 2-2V10zm5 6v4a4 4 0 0 1-4 4h-2a4 4 0 0 1-4-4v-4a4 4 0 0 1 4-4h2a4 4 0 0 1 4 4zm-2 0a2 2 0 0 0-2-2h-2a2 2 0 0 0-2 2v4a2 2 0 0 0 2 2h2a2 2 0 0 0 2-2v-4z" fill="#FAFAFA"/>
  </g>
</svg>